<svg width="783" height="783" viewBox="0 0 783 783" fill="none" xmlns="http://www.w3.org/2000/svg">
<path d="M782.181 416.366C788.622 315.229 755.592 215.536 690.038 138.251C624.484 60.967 531.515 12.1146 430.683 1.96819C329.85 -8.17825 229.012 21.1719 149.375 83.8461C69.7375 146.52 17.5073 237.635 3.66848 338.027C-10.1704 438.419 15.4606 540.267 75.171 622.15C134.881 704.033 224.018 759.57 323.835 777.083C423.652 794.596 526.371 772.718 610.39 716.052C694.408 659.386 753.179 572.347 774.342 473.239L701.838 457.757C684.683 538.096 637.042 608.652 568.935 654.587C500.827 700.522 417.561 718.256 336.647 704.06C255.733 689.864 183.476 644.844 135.074 578.468C86.6712 512.091 65.8941 429.532 77.1122 348.151C88.3303 266.771 130.669 192.911 195.225 142.106C259.781 91.3009 341.523 67.5089 423.26 75.7339C504.997 83.9588 580.36 123.56 633.5 186.208C686.639 248.857 713.414 329.671 708.193 411.655L782.181 416.366Z" fill="#6A00FF" fill-opacity="0.1"/>
</svg>
