<svg width="478" height="515" viewBox="0 0 478 515" fill="none" xmlns="http://www.w3.org/2000/svg">
<path d="M210.413 50.7314C133.223 66.2247 70.208 121.039 43.0508 193.446L0 110.602L108.842 0L210.413 50.7314Z" fill="#6A00FF"/>
<path d="M469.137 114.668C470.218 120.132 470.783 125.774 470.783 131.538C470.783 137.302 470.218 142.944 469.137 148.408L449.518 144.527C450.347 140.334 450.783 135.992 450.783 131.538C450.783 127.084 450.347 122.742 449.518 118.549L469.137 114.668ZM432.351 59.6133C441.779 65.9256 449.896 74.0421 456.208 83.4707L447.898 89.0332L439.588 94.5967C434.73 87.3406 428.481 81.0913 421.225 76.2334L426.788 67.9229L432.351 59.6133ZM384.283 45.0381C390.047 45.0381 395.689 45.6036 401.153 46.6846L397.272 66.3037C393.079 65.4742 388.737 65.0381 384.283 65.0381C379.829 65.0381 375.487 65.4742 371.294 66.3037L367.413 46.6846C372.877 45.6036 378.519 45.0381 384.283 45.0381Z" fill="#3ABEAB"/>
<path d="M76.7832 460.446L142.45 395.446L208.117 460.446L273.783 395.446L339.45 460.446L405.117 395.446L470.783 460.446" stroke="#FF9BFF" stroke-width="20"/>
<path d="M76.7832 500.446L142.45 435.446L208.117 500.446L273.783 435.446L339.45 500.446L405.117 435.446L470.783 500.446" stroke="#FF9BFF" stroke-width="20"/>
<path d="M54.3916 168.077C52.4732 171.746 50.6513 175.473 48.9307 179.256L38.9092 159.972L43.3457 157.665L47.7832 155.359L54.3916 168.077ZM32.1729 102.373L35.7363 105.88L26.792 114.969L32.6729 126.283L28.2363 128.59L23.7998 130.896L16.2451 116.357L14.5693 113.134L17.1172 110.544L28.6084 98.8662L32.1729 102.373ZM81.7041 59.1699L58.7207 82.5254L55.1572 79.0186L51.5928 75.5107L74.5771 52.1562L81.7041 59.1699ZM188.137 52.7607L185.978 57.083C183.664 57.8256 181.367 58.6036 179.087 59.418L154.354 47.0654L156.588 42.5928L158.822 38.1191L188.137 52.7607ZM114.851 16.1572L129.508 23.4775L127.274 27.9502L125.039 32.4238L113.632 26.7256L104.688 35.8145L101.125 32.3076L97.5605 28.8008L109.053 17.123L111.601 14.5332L114.851 16.1572Z" fill="#1F1926" fill-opacity="0.33"/>
</svg>
