<svg width="109" height="109" viewBox="0 0 109 109" fill="none" xmlns="http://www.w3.org/2000/svg">
<path d="M74.3912 27.1357L74.6688 28.2937L75.86 28.286L100.703 28.1189L87.7155 49.2981L87.0919 50.3135L87.9406 51.1501L105.625 68.5988L81.4658 74.391L80.3069 74.6682L80.3156 75.8598L80.4817 100.702L59.3035 87.7152L58.2881 87.0917L57.4515 87.9403L40.0019 105.625L34.2106 81.4656L33.9333 80.3066L32.7418 80.3153L7.89817 80.4812L20.8863 59.3032L21.5089 58.2876L20.6612 57.4513L2.97581 40.0013L27.136 34.2103L28.294 33.9328L28.2862 32.7415L28.1194 7.89766L49.2983 20.8861L50.314 21.5087L51.1503 20.661L68.5993 2.9753L74.3912 27.1357Z" fill="#FF9BFF" stroke="black" stroke-width="3"/>
</svg>
