<svg width="168" height="168" viewBox="0 0 168 168" fill="none" xmlns="http://www.w3.org/2000/svg">
<path d="M88.5906 35.1414L89.1946 35.845L89.9422 35.2954L124.809 9.64856L121.529 52.8083L121.459 53.7326L122.376 53.8721L165.166 60.3916L132.328 88.5909L131.625 89.1949L132.174 89.9425L157.821 124.809L114.662 121.529L113.737 121.459L113.598 122.376L107.078 165.166L78.8788 132.329L78.2748 131.625L77.5281 132.174L42.6606 157.821L45.9404 114.663L46.0105 113.737L45.0937 113.598L2.3026 107.079L35.1411 78.8791L35.8447 78.2751L35.2954 77.5284L9.64825 42.6609L52.808 45.9405L53.7323 46.0108L53.8718 45.0941L60.391 2.30291L88.5906 35.1414Z" fill="#6A00FF" stroke="black" stroke-width="2"/>
</svg>
