<svg width="220" height="220" viewBox="0 0 220 220" fill="none" xmlns="http://www.w3.org/2000/svg">
<g filter="url(#filter0_dd_320_1402)">
<path d="M106 0L131.758 43.8137L180.953 31.0467L168.186 80.2416L212 106L168.186 131.758L180.953 180.953L131.758 168.186L106 212L80.2416 168.186L31.0467 180.953L43.8137 131.758L0 106L43.8137 80.2416L31.0467 31.0467L80.2416 43.8137L106 0Z" fill="#6A00FF"/>
<path d="M130.896 44.3203L131.279 44.9717L132.01 44.7812L179.558 32.4414L167.219 79.9902L167.028 80.7207L167.68 81.1035L210.026 106L167.68 130.896L167.028 131.279L167.219 132.01L179.558 179.558L132.01 167.219L131.279 167.028L130.896 167.68L106 210.026L81.1035 167.68L80.7207 167.028L79.9902 167.219L32.4414 179.558L44.7812 132.01L44.9717 131.279L44.3203 130.896L1.97266 106L44.3203 81.1035L44.9717 80.7207L44.7812 79.9902L32.4414 32.4414L79.9902 44.7812L80.7207 44.9717L81.1035 44.3203L106 1.97266L130.896 44.3203Z" stroke="#1F1926" stroke-width="2"/>
</g>
<defs>
<filter id="filter0_dd_320_1402" x="0" y="0" width="220" height="220" filterUnits="userSpaceOnUse" color-interpolation-filters="sRGB">
<feFlood flood-opacity="0" result="BackgroundImageFix"/>
<feColorMatrix in="SourceAlpha" type="matrix" values="0 0 0 0 0 0 0 0 0 0 0 0 0 0 0 0 0 0 127 0" result="hardAlpha"/>
<feOffset dx="8" dy="8"/>
<feComposite in2="hardAlpha" operator="out"/>
<feColorMatrix type="matrix" values="0 0 0 0 0 0 0 0 0 0 0 0 0 0 0 0 0 0 1 0"/>
<feBlend mode="normal" in2="BackgroundImageFix" result="effect1_dropShadow_320_1402"/>
<feColorMatrix in="SourceAlpha" type="matrix" values="0 0 0 0 0 0 0 0 0 0 0 0 0 0 0 0 0 0 127 0" result="hardAlpha"/>
<feOffset dx="5" dy="5"/>
<feComposite in2="hardAlpha" operator="out"/>
<feColorMatrix type="matrix" values="0 0 0 0 0 0 0 0 0 0 0 0 0 0 0 0 0 0 1 0"/>
<feBlend mode="normal" in2="effect1_dropShadow_320_1402" result="effect2_dropShadow_320_1402"/>
<feBlend mode="normal" in="SourceGraphic" in2="effect2_dropShadow_320_1402" result="shape"/>
</filter>
</defs>
</svg>
