<svg width="133" height="133" viewBox="0 0 133 133" fill="none" xmlns="http://www.w3.org/2000/svg">
<path d="M81.8127 32.6428L82.1413 33.5099L83.0303 33.2474L114.059 24.086L100.78 53.5894L100.399 54.4346L101.214 54.8777L129.632 70.341L99.3809 81.8124L98.5138 82.141L98.7763 83.0301L107.936 114.059L78.4343 100.78L77.5891 100.399L77.146 101.214L61.6818 129.632L50.2113 99.3806L49.8827 98.5135L48.9936 98.776L17.9632 107.935L31.244 78.4341L31.6246 77.5888L30.81 77.1457L2.39015 61.6813L32.6431 50.211L33.5102 49.8824L33.2477 48.9934L24.0864 17.9628L53.5897 31.2438L54.4349 31.6243L54.878 30.8097L70.3414 2.38981L81.8127 32.6428Z" fill="#3ABEAB" stroke="black" stroke-width="2"/>
</svg>
